<svg width="800" height="800" viewBox="0 0 800 800" fill="none" xmlns="http://www.w3.org/2000/svg">
<path fill-rule="evenodd" clip-rule="evenodd" d="M5.02489 429H199.941C213.831 530.114 300.57 608 405.5 608C510.43 608 597.17 530.114 611.059 429H794.995C780.286 636.376 609.065 800 400.01 800C190.955 800 19.7343 636.376 5.02489 429ZM4.9552 372C19.1842 164.15 190.619 0 400.01 0C609.401 0 780.836 164.15 795.065 372H611.059C597.17 270.886 510.43 193 405.5 193C300.57 193 213.831 270.886 199.941 372H4.9552Z" fill="white"/>
<circle cx="400" cy="400" r="100" fill="white"/>
</svg>
